<svg width="887" height="925" viewBox="0 0 887 925" fill="none" xmlns="http://www.w3.org/2000/svg">
<path d="M1308.41 -712.313C1295.54 -673.45 1263.08 -658.968 1226.21 -675.759C1169.58 -701.504 1111.23 -721.932 1049.95 -733.476C1047.18 -734.001 1044.66 -735.75 1042 -736.939C1036.97 -740.262 1030.53 -735.959 1025.63 -740.017C1015.74 -739.248 1006.12 -740.402 996.811 -743.9C990.41 -747.433 982.784 -742.85 976.488 -746.908L958.369 -747.433C950.428 -750.931 941.578 -746.418 933.673 -750.266C924.438 -750.511 915.239 -750.756 906.004 -750.966C896.77 -753.03 887.5 -753.03 878.265 -750.966C869.8 -750.756 861.335 -750.546 852.87 -750.336C843.041 -746.139 832.302 -751.141 822.403 -747.433C817.541 -747.258 812.644 -747.083 807.781 -746.908C801.45 -742.85 793.825 -747.433 787.423 -743.9C784.975 -743.69 782.526 -743.445 780.043 -743.235C774.901 -739.632 768.394 -743.865 763.253 -740.262C720.752 -731.517 678.182 -723.122 637.046 -708.675C582.688 -689.611 531.548 -664.11 482.087 -634.692C394.778 -582.712 323 -513.696 262.905 -432.787C217.431 -371.572 181.402 -304.655 155.902 -232.246C141.806 -192.194 131.801 -151.233 122.287 -110.061C119.139 -105.024 123.336 -98.6575 119.279 -93.8302C117.949 -81.867 116.62 -69.9388 115.291 -57.9756C112.038 -51.6793 116.34 -44.2984 112.458 -38.1069C112.248 -30.7611 112.038 -23.4153 111.793 -16.0345C108.96 8.45154 111.338 33.0425 110.569 57.5635C111.093 64.3497 109.379 71.2757 111.793 77.9568C112.038 86.3171 112.283 94.6774 112.528 103.038C116.131 108.215 112.178 114.686 115.361 119.933C121.762 180.658 135.439 239.775 155.692 297.282C184.201 378.261 225.232 452.454 278.296 519.86C294.316 540.219 313.52 558.163 328.561 579.151C347.136 605.107 342.518 633.755 320.026 651.945C293.092 673.703 264.619 673.213 241.217 649.111C190.322 596.746 147.787 538.05 111.618 474.701C64.081 391.448 32.1096 302.249 11.9964 208.747C7.65892 188.634 6.9943 167.751 0.453125 148.022V-82.7765C3.00663 -85.1901 1.78235 -88.7931 3.18153 -91.5915C4.47577 -97.2582 3.7412 -103.03 3.95108 -108.767C3.77618 -166.274 21.8956 -219.793 40.5047 -272.998C78.2127 -380.842 135.544 -477.667 210.995 -563.053C279.59 -640.709 358.784 -705.947 449.661 -756.877C539.488 -807.214 635.367 -839.221 736.248 -857.62C758.041 -861.608 780.148 -861.083 802.15 -862.552C807.711 -862.552 813.308 -862.552 818.87 -862.552C828.489 -863.042 838.039 -865.141 847.763 -864.266C855.843 -864.266 863.924 -864.266 872.004 -864.266C885.576 -864.266 899.148 -864.266 912.72 -864.266C921.045 -863.532 929.545 -865.84 937.731 -862.797C945.951 -864.196 953.891 -857.27 962.216 -862.063C968.827 -858.704 976.453 -863.007 982.994 -859.264C1032.56 -852.863 1081.64 -843.908 1129.94 -831.035C1180.1 -817.673 1229.08 -800.847 1275.39 -777.341C1290.71 -769.575 1304.91 -758.906 1308.37 -739.842C1310.79 -730.747 1310.79 -721.618 1308.37 -712.523L1308.41 -712.313Z" fill="#30302E" fill-opacity="0.2"/>
<path d="M783.741 924.477C762.194 915.488 738.792 915.662 716.37 911.08C648.265 897.158 582.539 876.345 519.4 847.346C486.1 832.06 472.913 800.053 486.869 769.865C500.651 740.027 533.322 729.813 567.008 744.785C959.828 919.51 1409.46 761.016 1595.51 374.906C1724.45 107.378 1700.77 -155.707 1541.12 -405.465C1514.81 -446.602 1532.58 -490.711 1568.75 -499.911C1592.92 -506.033 1615.94 -497.742 1631.02 -475.845C1702.93 -371.359 1749.7 -256.45 1773.28 -131.956C1780.97 -91.309 1785.73 -50.3123 1787.69 -9.00085C1791.57 3.522 1786.15 16.8145 1790.73 29.3023V39.7963C1786.85 50.7101 1790 62.0087 1788.98 73.0624C1792.34 220.468 1748.27 354.827 1676.63 481.63C1630.42 563.413 1572.29 635.927 1503.2 699.136C1388.96 803.726 1256.14 874.106 1105.34 910.8C1070.64 919.265 1035.24 918.566 1000.47 924.407H783.671L783.741 924.477Z" fill="#30302E" fill-opacity="0.2"/>
<path d="M893.897 -675.41C1190.87 -675.41 1458.75 -487.462 1558.02 -209.72C1566.69 -185.479 1564.56 -163.407 1546.41 -145.077C1530.46 -128.986 1510.34 -124.299 1488.44 -131.715C1469.42 -138.116 1458.43 -151.968 1451.51 -170.648C1402.43 -303.222 1317.22 -406.203 1196.19 -479.102C850.802 -687.163 394.074 -488.372 311.417 -94.356C296.796 -24.7108 293.298 45.1095 303.512 115.594C308.339 148.965 288.331 177.019 256.674 182.231C225.508 187.373 196.754 166.63 192.137 133.119C168.841 -36.3242 199.448 -195.763 291.094 -340.231C422.303 -547.103 612.591 -657.675 857.238 -674.116C863.605 -674.536 870.006 -675.095 876.372 -675.34C882.179 -675.55 888.021 -675.375 893.862 -675.375L893.897 -675.41Z" fill="#30302E" fill-opacity="0.2"/>
<path d="M975.844 620.712C1082.46 606.37 1177.29 564.184 1261.07 497.512C1373.91 407.683 1444.47 291.27 1474.48 150.335C1478.57 131.166 1480.56 111.542 1483.5 92.0932C1486.86 85.7618 1482.52 78.311 1486.37 72.0496C1486.58 65.928 1486.79 59.8065 1487 53.65C1490.78 40.8123 1485.6 27.2751 1489.94 14.4724C1495.78 -24.7753 1547.44 -37.543 1575.88 -15.5056C1586.24 -7.49512 1595.93 2.05443 1598.58 16.0814C1601.24 36.6847 1601.17 57.288 1598.58 77.8913L1597.92 95.9759C1594.56 102.377 1598.9 109.898 1595.05 116.229C1594.88 118.818 1594.7 121.406 1594.53 124.03C1591.13 129.382 1595.3 136.028 1591.55 141.345C1586.31 191.856 1571.06 239.849 1553.5 287.037C1526.35 359.936 1486.65 425.628 1437.01 485.479C1395.7 535.221 1347.5 576.917 1295.03 614.625C1208.63 676.68 1111.49 711.1 1008.34 731.319C1003.27 732.298 997.916 731.949 992.704 732.193C986.513 736.356 978.992 731.704 972.696 735.237L962.447 735.901C955.731 739.574 948 735.412 941.249 738.665C911.936 739.644 882.623 742.932 853.31 738.665C842.851 735.027 831.623 739.924 821.199 735.796C817.911 735.586 814.623 735.377 811.335 735.167C804.969 731.774 797.448 736.286 791.187 732.193C742.775 728.87 696.707 715.193 651.443 698.997C546.225 661.359 455.278 601.193 378.358 520.494C311.862 450.744 261.351 370.43 227.946 279.831C214.094 242.263 228.645 213.264 266.318 200.496C275.553 197.978 284.822 197.978 294.057 200.496C330.051 212.704 336.767 246.81 349.989 275.808C379.687 341.046 417.99 399.918 469.34 450.709C505.159 486.144 543.182 518.325 586.696 543.266C648.365 578.596 713.042 607.035 784.296 617.284C789.333 620.432 795.699 616.235 800.526 620.292C803.115 620.397 805.703 620.502 808.292 620.607C813.783 624 820.534 619.907 825.991 623.545C831.798 622.776 837.43 626.973 843.341 624.21C856.808 627.918 870.87 622.811 884.302 627.078C889.514 627.078 894.726 627.078 899.938 627.078C912.496 624.315 925.054 624.735 937.646 626.903C944.467 625.819 951.288 624.7 958.144 623.615C963.566 619.872 970.317 623.93 975.809 620.677L975.844 620.712Z" fill="#30302E" fill-opacity="0.2"/>
<path d="M1294.61 -26.524C1285.48 -70.2141 1274.71 -113.345 1253.33 -153.012C1191.32 -268.131 1096.84 -339.841 968.286 -365.971C963.773 -366.88 959.401 -368.384 954.958 -369.644C949.781 -373.107 943.24 -368.874 938.133 -372.652C932.047 -372.827 925.925 -373.037 919.839 -373.212C900.215 -375.345 880.592 -375.345 860.933 -373.212C856.001 -373.002 851.069 -372.827 846.137 -372.617C841.03 -368.839 834.489 -373.072 829.277 -369.609C760.542 -359.954 700.307 -330.116 644.55 -290.484C630.558 -280.549 619.015 -267.222 606.247 -255.539C598.132 -248.123 590.331 -239.972 578.159 -239.658C568.504 -237.174 558.815 -237.139 549.161 -239.693C527.298 -242.631 514.461 -257.532 509.249 -276.422C503.967 -295.486 504.946 -315.669 520.652 -331.83C591.416 -404.729 676.486 -452.022 775.618 -473.744C798.145 -478.676 821.197 -481.16 843.968 -484.763C851.979 -488.086 860.374 -485.568 868.524 -486.372C884.23 -486.372 899.971 -486.372 915.676 -486.372C923.932 -485.603 932.397 -488.086 940.512 -484.798C986.335 -478.502 1031.46 -469.442 1075.01 -453.386C1137.13 -430.509 1191.67 -395.634 1240.57 -351.314C1295.17 -301.852 1338.16 -243.68 1368.38 -176.798C1387.45 -134.543 1401.19 -90.1878 1406.09 -43.6293C1410.18 -37.3679 1405.67 -29.8122 1409.06 -23.4458C1409.31 -19.9478 1409.52 -16.4498 1409.76 -12.9518C1412.91 -3.43716 1410.57 6.39221 1411.3 16.0467C1410.32 36.7899 1413.33 57.603 1409.59 78.2762C1409.45 81.8442 1409.31 85.4122 1409.13 88.9801C1405.57 95.2766 1410.22 102.797 1406.09 109.024C1399.97 160.829 1384.54 209.871 1360.76 256.08C1354.63 267.973 1342.64 275.354 1328.68 277.733C1319.41 280.426 1310.14 280.216 1300.84 277.872C1277.4 272.975 1261.27 255.625 1258.9 232.678C1256.62 226.522 1256.62 220.33 1258.9 214.174C1259.74 195.669 1271.87 181.048 1276.35 163.837C1282.54 139.911 1288.52 115.915 1294.58 91.9534C1298.07 85.5871 1293.53 78.0314 1297.55 71.735C1297.72 68.0621 1297.93 64.3892 1298.11 60.7162C1300.63 54.6647 1298.84 48.3333 1299.37 42.1418C1299.37 34.936 1299.37 27.73 1299.37 20.5241C1298.88 14.3327 1300.52 8.00131 1298.21 1.91476C1297.97 -0.883636 1297.76 -3.71704 1297.51 -6.51544C1293.53 -12.7069 1298.14 -20.2276 1294.51 -26.4541L1294.61 -26.524Z" fill="#30302E" fill-opacity="0.2"/>
<path d="M911.269 552.213C631.153 552.213 412.601 359.753 377.446 98.3818C364.679 3.30598 377.796 -88.3418 416.448 -176.107C431.769 -210.912 470.457 -222.385 500.609 -202.062C523.556 -186.601 531.636 -158.722 519.813 -130.948C495.047 -72.7407 483.854 -12.3301 486.268 51.0188C493.229 235.364 633.986 398.791 815.53 431.567C943.625 454.689 1057.59 423.592 1157.42 340.199C1195.34 308.507 1246.34 324.458 1254.38 370.737C1258.79 396.062 1246.27 414.042 1227.76 429.503C1162.81 483.827 1089.32 520.836 1006.73 539.655C969.126 548.226 930.998 552.108 911.269 552.213Z" fill="#30302E" fill-opacity="0.2"/>
<path d="M744.617 34.1648C744.617 -52.4808 812.897 -121.252 899.297 -121.671C986.256 -122.091 1055.9 -52.8307 1055.94 34.1298C1055.94 121.055 986.291 190.421 899.297 190.176C813.282 189.931 744.617 120.671 744.652 34.1648H744.617Z" fill="#30302E" fill-opacity="0.2"/>
</svg>
