<svg width="558" height="594" viewBox="0 0 558 594" fill="none" xmlns="http://www.w3.org/2000/svg">
<path d="M380.437 55.928C375.705 70.212 363.774 75.5348 350.223 69.3634C329.408 59.9007 307.963 52.3923 285.438 48.1495C284.422 47.9567 283.497 47.3138 282.52 46.8767C280.668 45.6553 278.303 47.2367 276.503 45.7453C272.864 46.0281 269.329 45.6038 265.909 44.3181C263.556 43.0196 260.753 44.7039 258.439 43.2125L251.779 43.0196C248.861 41.7339 245.608 43.3925 242.702 41.9782C239.308 41.8882 235.927 41.7982 232.533 41.7211C229.138 40.9625 225.731 40.9625 222.337 41.7211C219.226 41.7982 216.115 41.8753 213.003 41.9525C209.391 43.4953 205.444 41.6568 201.805 43.0196C200.018 43.0839 198.218 43.1482 196.431 43.2125C194.104 44.7039 191.301 43.0196 188.948 44.3181C188.048 44.3953 187.148 44.4853 186.236 44.5624C184.346 45.8867 181.954 44.331 180.064 45.6553C164.443 48.8695 148.797 51.9552 133.677 57.2651C113.698 64.2721 94.9012 73.6448 76.7218 84.4575C44.6313 103.563 18.2493 128.93 -3.83858 158.668C-20.5524 181.167 -33.7948 205.763 -43.1674 232.376C-48.3486 247.098 -52.0257 262.153 -55.5227 277.286C-56.6798 279.137 -55.137 281.477 -56.6284 283.251C-57.1169 287.648 -57.6055 292.033 -58.094 296.43C-59.2897 298.744 -57.7083 301.457 -59.1354 303.732C-59.2126 306.432 -59.2897 309.132 -59.3797 311.845C-60.4211 320.845 -59.5469 329.883 -59.8297 338.896C-59.6369 341.39 -60.2668 343.936 -59.3797 346.392C-59.2897 349.465 -59.1997 352.537 -59.1097 355.61C-57.7855 357.513 -59.2383 359.891 -58.0683 361.82C-55.7155 384.14 -50.6886 405.868 -43.2445 427.005C-32.7663 456.768 -17.6853 484.038 1.81839 508.813C7.70678 516.296 14.7651 522.892 20.2935 530.606C27.1205 540.146 25.4234 550.675 17.1565 557.361C7.25679 565.358 -3.2086 565.178 -11.8098 556.32C-30.5163 537.073 -46.1501 515.499 -59.444 492.215C-76.9163 461.616 -88.6674 428.83 -96.06 394.464C-97.6542 387.071 -97.8985 379.395 -100.303 372.144V287.314C-99.3642 286.427 -99.8142 285.103 -99.2999 284.074C-98.8242 281.991 -99.0942 279.87 -99.0171 277.761C-99.0813 256.625 -92.4216 236.954 -85.5818 217.398C-71.7222 177.76 -50.65 142.172 -22.918 110.788C2.29408 82.2461 31.4017 58.2679 64.8036 39.5482C97.8197 21.0471 133.06 9.28302 170.139 2.52027C178.149 1.05458 186.274 1.24743 194.361 0.707443C196.405 0.707443 198.462 0.707443 200.507 0.707443C204.042 0.527446 207.552 -0.24397 211.126 0.0774535C214.096 0.0774535 217.066 0.0774535 220.036 0.0774535C225.024 0.0774535 230.013 0.0774535 235.001 0.0774535C238.061 0.347449 241.185 -0.501108 244.194 0.617445C247.215 0.103167 250.134 2.64884 253.193 0.88744C255.623 2.12171 258.426 0.540303 260.83 1.91599C279.048 4.26881 297.086 7.56019 314.842 12.2915C333.278 17.2029 351.278 23.3871 368.3 32.0269C373.931 34.8812 379.151 38.8025 380.424 45.8096C381.311 49.1524 381.311 52.508 380.424 55.8508L380.437 55.928Z" fill="#30302E" fill-opacity="0.2"/>
<path d="M187.595 657.53C179.675 654.226 171.074 654.291 162.833 652.606C137.801 647.489 113.643 639.839 90.4363 629.181C78.1967 623.562 73.3497 611.798 78.4796 600.703C83.5451 589.736 95.5533 585.982 107.934 591.484C252.316 655.705 417.576 597.45 485.961 455.535C533.351 357.205 524.647 260.508 465.969 168.71C456.301 153.59 462.832 137.378 476.126 133.996C485.01 131.746 493.47 134.793 499.011 142.842C525.444 181.245 542.634 223.48 551.299 269.238C554.128 284.178 555.876 299.246 556.596 314.43C558.023 319.033 556.031 323.919 557.715 328.509V332.366C556.288 336.377 557.445 340.53 557.072 344.593C558.306 398.772 542.107 448.155 515.776 494.762C498.792 524.821 477.424 551.474 452.032 574.706C410.042 613.148 361.225 639.016 305.8 652.503C293.046 655.615 280.035 655.358 267.255 657.505H187.569L187.595 657.53Z" fill="#30302E" fill-opacity="0.2"/>
<path d="M228.083 69.4915C337.237 69.4915 435.694 138.572 472.181 240.656C475.37 249.566 474.585 257.678 467.913 264.415C462.05 270.33 454.657 272.052 446.609 269.327C439.615 266.974 435.578 261.883 433.032 255.017C414.994 206.289 383.675 168.438 339.191 141.645C212.243 65.1716 44.3729 138.238 13.9924 283.058C8.61832 308.656 7.33264 334.319 11.0868 360.225C12.861 372.491 5.50698 382.802 -6.12837 384.718C-17.5837 386.608 -28.152 378.983 -29.8491 366.667C-38.4117 304.388 -27.162 245.786 6.52267 192.687C54.7483 116.651 124.689 76.01 214.609 69.9672C216.949 69.8129 219.302 69.6072 221.642 69.5172C223.776 69.4401 225.923 69.5044 228.07 69.5044L228.083 69.4915Z" fill="#30302E" fill-opacity="0.2"/>
<path d="M258.202 545.881C297.39 540.61 332.244 525.105 363.036 500.599C404.512 467.583 430.444 424.795 441.475 372.994C442.979 365.949 443.712 358.736 444.792 351.587C446.027 349.26 444.432 346.522 445.847 344.22C445.924 341.97 446.001 339.721 446.078 337.458C447.466 332.739 445.564 327.764 447.158 323.058C449.305 308.632 468.294 303.94 478.747 312.04C482.553 314.984 486.114 318.494 487.091 323.649C488.068 331.222 488.042 338.795 487.091 346.368L486.847 353.015C485.612 355.367 487.207 358.132 485.792 360.459C485.728 361.41 485.664 362.362 485.6 363.326C484.352 365.293 485.882 367.736 484.507 369.69C482.578 388.255 476.973 405.895 470.519 423.239C460.542 450.033 445.949 474.178 427.706 496.177C412.522 514.459 394.805 529.785 375.52 543.644C343.764 566.453 308.061 579.104 270.146 586.535C268.282 586.895 266.315 586.766 264.399 586.856C262.124 588.386 259.359 586.676 257.045 587.975L253.278 588.219C250.81 589.569 247.968 588.039 245.487 589.235C234.713 589.595 223.939 590.804 213.165 589.235C209.321 587.898 205.194 589.698 201.363 588.181C200.154 588.104 198.946 588.026 197.737 587.949C195.397 586.702 192.633 588.361 190.332 586.856C172.538 585.635 155.606 580.608 138.969 574.655C100.296 560.821 66.8682 538.707 38.5963 509.046C14.1556 483.41 -4.40956 453.89 -16.6877 420.591C-21.779 406.782 -16.4306 396.124 -2.5839 391.431C0.810284 390.505 4.21732 390.505 7.6115 391.431C20.8411 395.918 23.3096 408.454 28.1694 419.112C39.0848 443.09 53.1629 464.728 72.0367 483.397C85.202 496.421 99.1772 508.249 115.171 517.416C137.837 530.402 161.61 540.854 187.799 544.621C189.65 545.779 191.99 544.236 193.764 545.727C194.716 545.766 195.667 545.804 196.619 545.843C198.637 547.09 201.118 545.586 203.124 546.923C205.258 546.64 207.328 548.183 209.501 547.167C214.451 548.53 219.619 546.653 224.556 548.221C226.472 548.221 228.388 548.221 230.303 548.221C234.919 547.206 239.534 547.36 244.163 548.157C246.67 547.758 249.177 547.347 251.697 546.949C253.69 545.573 256.171 547.064 258.189 545.869L258.202 545.881Z" fill="#30302E" fill-opacity="0.2"/>
<path d="M375.365 307.99C372.009 291.931 368.05 276.079 360.194 261.499C337.399 219.187 302.673 192.83 255.424 183.226C253.766 182.892 252.159 182.339 250.526 181.876C248.623 180.603 246.219 182.159 244.342 180.77C242.105 180.706 239.855 180.629 237.618 180.565C230.405 179.78 223.193 179.78 215.967 180.565C214.154 180.642 212.341 180.706 210.529 180.783C208.652 182.172 206.247 180.616 204.332 181.889C179.068 185.437 156.929 196.404 136.435 210.971C131.293 214.623 127.05 219.521 122.357 223.815C119.374 226.541 116.507 229.537 112.033 229.652C108.485 230.565 104.923 230.578 101.375 229.64C93.3395 228.56 88.621 223.083 86.7054 216.14C84.764 209.133 85.124 201.714 90.8967 195.774C116.906 168.981 148.173 151.598 184.609 143.614C192.889 141.801 201.362 140.888 209.732 139.564C212.676 138.343 215.761 139.268 218.757 138.973C224.53 138.973 230.315 138.973 236.088 138.973C239.122 139.255 242.233 138.343 245.216 139.551C262.059 141.865 278.644 145.195 294.65 151.097C317.484 159.505 337.528 172.323 355.501 188.613C375.571 206.793 391.372 228.174 402.48 252.756C409.487 268.288 414.54 284.59 416.339 301.703C417.844 304.004 416.185 306.781 417.432 309.121C417.522 310.407 417.599 311.693 417.689 312.978C418.847 316.475 417.985 320.088 418.255 323.637C417.895 331.261 419.001 338.911 417.625 346.509C417.574 347.82 417.522 349.132 417.458 350.443C416.147 352.758 417.857 355.522 416.339 357.81C414.09 376.851 408.42 394.877 399.677 411.861C397.427 416.232 393.017 418.945 387.888 419.819C384.48 420.809 381.073 420.732 377.654 419.871C369.039 418.071 363.113 411.694 362.238 403.26C361.403 400.997 361.403 398.721 362.238 396.458C362.547 389.657 367.008 384.283 368.654 377.957C370.929 369.163 373.128 360.343 375.352 351.536C376.638 349.196 374.966 346.419 376.445 344.105C376.509 342.755 376.586 341.405 376.651 340.055C377.576 337.831 376.921 335.504 377.114 333.228C377.114 330.579 377.114 327.931 377.114 325.282C376.934 323.007 377.538 320.68 376.689 318.442C376.599 317.414 376.522 316.372 376.432 315.344C374.966 313.068 376.664 310.304 375.326 308.015L375.365 307.99Z" fill="#30302E" fill-opacity="0.2"/>
<path d="M234.468 520.705C131.511 520.705 51.1824 449.966 38.2614 353.899C33.5686 318.954 38.3899 285.269 52.5966 253.011C58.2279 240.218 72.4474 236.001 83.53 243.471C91.964 249.154 94.9339 259.4 90.5883 269.609C81.4857 291.003 77.3716 313.207 78.2587 336.491C80.8172 404.247 132.553 464.314 199.279 476.361C246.361 484.86 288.248 473.43 324.941 442.779C338.878 431.13 357.623 436.993 360.58 454.003C362.2 463.311 357.597 469.92 350.796 475.603C326.921 495.569 299.909 509.172 269.554 516.089C255.733 519.239 241.719 520.666 234.468 520.705Z" fill="#30302E" fill-opacity="0.2"/>
<path d="M173.215 330.296C173.215 298.449 198.311 273.173 230.067 273.018C262.029 272.864 287.627 298.321 287.64 330.283C287.64 362.233 262.042 387.728 230.067 387.638C198.453 387.548 173.215 362.091 173.228 330.296H173.215Z" fill="#30302E" fill-opacity="0.2"/>
</svg>
