<?xml version="1.0" encoding="UTF-8"?>
<svg id="Layer_2" xmlns="http://www.w3.org/2000/svg" viewBox="0 0 907.35 209.46">
  <defs>
    <style>
      .cls-1 {
        fill: #ffd900;
      }

      .cls-2 {
        fill: #fff;
      }
    </style>
  </defs>
  <g id="_Слой_1" data-name="Слой_1">
    <g>
      <g>
        <path class="cls-1" d="M136.22,140.46c-17.43,15.39-43.23,15.95-61.36,1.32-16.75-13.51-22.36-36.67-13.65-56.31,1.46-3.3-.02-7.17-3.34-8.64-3.31-1.46-7.17.03-8.64,3.33-11.11,25.06-3.95,54.58,17.4,71.81,23.12,18.65,56.03,17.94,78.26-1.69,2.71-2.4,2.97-6.53.57-9.24-.25-.28-.51-.53-.8-.76-2.44-1.97-6.01-1.96-8.45.19"/>
        <path class="cls-1" d="M40.37,52.78c-14.42,17.87-20.79,41.15-17.48,63.89.25,1.7,1.13,3.15,2.37,4.15,1.37,1.1,3.18,1.66,5.06,1.38,3.58-.52,6.06-3.85,5.53-7.42-2.79-19.14,2.58-38.74,14.71-53.77,24.11-29.88,68.03-34.57,97.91-10.46,10.07,8.12,17.64,18.82,21.92,30.95,1.2,3.41,4.95,5.2,8.36,4,3.41-1.2,5.2-4.95,3.99-8.36-5.08-14.42-14.09-27.14-26.05-36.78-35.5-28.64-87.68-23.07-116.33,12.43"/>
        <g>
          <path class="cls-2" d="M101.2,44.14c-14.99.88-29.03,7.22-39.55,17.85-2.54,2.57-2.52,6.72.05,9.26.16.16.33.31.5.45,2.58,2.08,6.38,1.92,8.76-.49,17.22-17.4,44.6-18.91,63.68-3.51,16.9,13.64,22.45,36.95,13.48,56.69-1.5,3.3-.04,7.18,3.25,8.67,3.29,1.49,7.18.04,8.67-3.26,11.43-25.18,4.37-54.91-17.18-72.3-11.78-9.5-26.57-14.24-41.67-13.36"/>
          <path class="cls-2" d="M180.89,97.86c-3.62.02-6.53,2.97-6.52,6.58.05,9.74-1.89,19.19-5.76,28.07-2.48,5.7-5.74,11.06-9.68,15.95-24.11,29.88-68.03,34.57-97.91,10.46-9.89-7.98-17.4-18.47-21.71-30.35-1.23-3.4-4.99-5.16-8.39-3.92-3.4,1.24-5.15,4.99-3.92,8.39,5.13,14.12,14.05,26.59,25.79,36.07,35.5,28.64,87.68,23.07,116.32-12.43,4.68-5.8,8.55-12.17,11.5-18.94,4.6-10.56,6.91-21.79,6.85-33.36-.01-2.05-.96-3.88-2.44-5.07-1.13-.91-2.58-1.46-4.14-1.45"/>
          <path class="cls-2" d="M149.85,10.17C128.94.18,104.9-2.57,82.15,2.45c-23.11,5.09-44.03,18.06-58.92,36.51C7.18,58.84-1.03,83.84.1,109.35c1.12,25.28,11.3,49.25,28.65,67.49.2.21.42.41.64.59,2.52,2.03,6.21,1.93,8.62-.36,2.62-2.49,2.72-6.64.23-9.26C6.74,134.68,4.66,82.82,33.42,47.18c13.22-16.38,31.04-27.42,51.55-31.94,19.91-4.39,40.95-1.99,59.23,6.74,3.26,1.56,7.17.18,8.73-3.09,1.33-2.79.52-6.05-1.79-7.91-.39-.32-.82-.59-1.3-.82"/>
        </g>
        <path class="cls-1" d="M181.83,43.51c-2.97,2.06-3.72,6.14-1.66,9.11,11.02,15.93,16.77,35.43,16.19,54.91-.6,20.12-7.61,39.05-20.29,54.76-26.52,32.87-71.75,43.38-109.98,25.57-3.28-1.52-7.18-.11-8.7,3.17-1.3,2.78-.47,6.01,1.82,7.86.41.33.85.61,1.35.84,20.83,9.71,44.72,12.26,67.26,7.18,23.24-5.23,43.45-17.82,58.44-36.4,14.49-17.95,22.5-39.6,23.19-62.59.66-22.25-5.91-44.53-18.51-62.75-.37-.53-.8-.99-1.28-1.38-2.2-1.78-5.39-1.98-7.84-.29"/>
        <circle class="cls-1" cx="105.65" cy="104.97" r="18.18"/>
      </g>
      <g>
        <path class="cls-2" d="M300.55,94.87c4.18-2.34,7.34-5.6,9.47-9.76,2.13-4.16,3.19-9.02,3.19-14.57s-1.53-10.26-4.59-14.51c-2.27-3.16-5.34-5.51-9.18-7.06,2.25-1.34,4.19-3.09,5.73-5.36,2.45-3.6,3.68-7.98,3.68-13.14,0-4.21-.99-8.29-2.96-12.23-1.97-3.95-4.99-7.19-9.04-9.73-4.06-2.54-9.25-3.81-15.58-3.81h-37.15v93.69h40.93c6.16,0,11.33-1.17,15.52-3.51ZM259.98,19.33h21.08c3.73,0,6.64,1.08,8.72,3.25,2.08,2.17,3.12,4.88,3.12,8.13,0,2.47-.52,4.55-1.56,6.25-1.04,1.69-2.45,2.97-4.23,3.84-1.78.87-3.8,1.3-6.05,1.3h-21.08v-22.77ZM259.98,83.62v-26.87h23.55c2.91,0,5.4.6,7.48,1.79,2.08,1.19,3.66,2.79,4.75,4.78,1.08,2,1.63,4.25,1.63,6.77,0,2.78-.62,5.17-1.85,7.19-1.24,2.02-2.94,3.58-5.11,4.68-2.17,1.11-4.62,1.66-7.35,1.66h-23.1Z"/>
        <path class="cls-2" d="M338.06,62.67c0-2.69.32-5.19.97-7.51.65-2.32,1.66-4.39,3.03-6.21s3.13-3.32,5.3-4.49c2.17-1.3,4.61-2.06,7.32-2.28,2.71-.22,5.11-.02,7.19.59v-14.64c-2.08-.35-4.23-.44-6.44-.29-2.21.15-4.37.56-6.47,1.24-2.1.67-4.02,1.59-5.76,2.76-2.04,1.26-3.78,2.85-5.24,4.78-.66.88-1.25,1.82-1.79,2.78v-11.27h-13.86v70.27h15.75v-35.72Z"/>
        <path class="cls-2" d="M406.09,96.79c3.26-1.82,6.19-4.46,8.82-7.89v9.49h13.73v-43.14c0-3.04-.13-5.84-.39-8.43-.26-2.58-1.02-5.11-2.28-7.58-2.3-4.64-5.82-7.98-10.57-10.02-4.75-2.04-10.25-3.06-16.49-3.06-8.29,0-14.87,1.8-19.75,5.4-4.88,3.6-8.19,8.37-9.92,14.31l14.31,4.49c1.17-3.6,3.23-6.14,6.18-7.61,2.95-1.47,6.01-2.21,9.17-2.21,5.25,0,8.98,1.15,11.19,3.45,1.83,1.91,2.85,4.74,3.13,8.4-2.81.42-5.57.82-8.24,1.19-4.45.63-8.57,1.31-12.36,2.05-3.8.74-7.1,1.56-9.92,2.47-3.73,1.26-6.77,2.87-9.11,4.85-2.34,1.97-4.08,4.32-5.21,7.03-1.13,2.71-1.69,5.76-1.69,9.14,0,3.86.9,7.4,2.7,10.6,1.8,3.21,4.46,5.78,7.97,7.71,3.52,1.93,7.81,2.9,12.88,2.9,6.33,0,11.61-1.18,15.84-3.55ZM383.35,83.52c-.87-1.32-1.3-2.85-1.3-4.59,0-1.52.33-2.84,1.01-3.97.67-1.13,1.64-2.13,2.9-2.99,1.26-.87,2.8-1.63,4.62-2.28,1.87-.61,4.01-1.16,6.44-1.66,2.43-.5,5.34-1.03,8.72-1.59,2.16-.36,4.62-.76,7.33-1.19-.03,1.19-.07,2.54-.13,4.08-.11,2.58-.57,4.87-1.4,6.86-.52,1.61-1.53,3.32-3.02,5.14-1.5,1.82-3.5,3.36-6.02,4.62-2.52,1.26-5.55,1.89-9.11,1.89-2.47,0-4.54-.39-6.21-1.17-1.67-.78-2.94-1.83-3.81-3.16Z"/>
        <path class="cls-2" d="M455.5,62.28c0-4.29.48-7.82,1.43-10.57.95-2.75,2.22-4.92,3.81-6.51,1.58-1.58,3.35-2.7,5.3-3.35s3.93-.98,5.92-.98c3.73,0,6.69.8,8.88,2.41,2.19,1.61,3.84,3.66,4.95,6.15,1.11,2.49,1.81,5.09,2.11,7.77.3,2.69.46,5.14.46,7.35v33.83h15.88v-39.23c0-1.69-.14-3.89-.42-6.6-.28-2.71-.9-5.58-1.85-8.62-.95-3.04-2.43-5.9-4.42-8.59-2-2.69-4.68-4.9-8.07-6.64-3.38-1.73-7.68-2.6-12.88-2.6-6.59,0-12.15,1.44-16.65,4.33-2.43,1.55-4.52,3.42-6.31,5.55v-7.86h-13.99v70.27h15.88v-36.11Z"/>
        <path class="cls-2" d="M527.39,95.46c4.81,3.25,10.45,4.88,16.92,4.88,6.85,0,12.6-1.63,17.24-4.88.99-.7,1.91-1.48,2.8-2.28v5.21h13.86V8.6h-15.81v22.98c-.24-.18-.44-.39-.68-.57-4.53-3.23-10.14-4.85-16.82-4.85s-12.4,1.62-17.31,4.85c-4.9,3.23-8.69,7.63-11.35,13.21-2.67,5.57-4,11.92-4,19.03s1.32,13.34,3.97,18.93c2.64,5.6,6.38,10.02,11.19,13.27ZM530.78,51.64c1.3-3.49,3.32-6.27,6.05-8.33,2.73-2.06,6.2-3.09,10.41-3.09,3.99,0,7.24.97,9.76,2.9,2.52,1.93,4.37,4.62,5.57,8.07,1.19,3.45,1.79,7.47,1.79,12.07s-.6,8.57-1.79,12.04c-1.2,3.47-3.08,6.17-5.66,8.1-2.58,1.93-5.97,2.9-10.18,2.9s-7.44-1.02-10.09-3.06c-2.64-2.04-4.61-4.8-5.89-8.3-1.28-3.49-1.92-7.39-1.92-11.68s.65-8.12,1.95-11.61Z"/>
      </g>
      <path class="cls-2" d="M326.09,153.69h-33.18v12.3h16.53c-.78,5.38-2.3,9.86-4.56,13.44-2.25,3.58-5.16,6.25-8.72,8-3.56,1.76-7.7,2.61-12.43,2.57-6.29-.09-11.53-1.54-15.71-4.36-4.19-2.82-7.32-6.76-9.4-11.81-2.08-5.05-3.12-11.01-3.12-17.86s1.05-12.84,3.16-17.96c2.1-5.12,5.24-9.09,9.4-11.91,4.16-2.82,9.39-4.18,15.68-4.1,6.25,0,11.39,1.66,15.42,4.98,4.04,3.32,6.94,7.75,8.72,13.3l16-2.54c-2.39-9.67-6.95-17.19-13.7-22.54-6.74-5.36-15.89-8.04-27.43-8.04-8.33,0-15.81,1.94-22.45,5.82-6.64,3.88-11.87,9.46-15.68,16.72-3.82,7.27-5.73,16.02-5.73,26.25,0,7.81,1.13,14.74,3.38,20.79,2.25,6.05,5.39,11.16,9.4,15.32,4.01,4.16,8.68,7.32,13.99,9.47,5.31,2.15,11.01,3.22,17.08,3.22,9.07,0,16.85-1.95,23.36-5.86,6.51-3.9,11.51-9.29,15-16.17,3.49-6.87,5.24-14.74,5.24-23.59,0-.26-.02-1.06-.06-2.41-.04-1.34-.11-2.36-.2-3.06Z"/>
      <path class="cls-2" d="M368.57,132.25c-2.21.15-4.37.56-6.47,1.24-2.1.67-4.02,1.59-5.76,2.76-2.04,1.26-3.78,2.85-5.24,4.78-.66.88-1.25,1.82-1.79,2.78v-11.27h-13.86v70.27h15.75v-35.72c0-2.69.32-5.19.97-7.51.65-2.32,1.66-4.39,3.03-6.21s3.13-3.32,5.3-4.49c2.17-1.3,4.61-2.06,7.32-2.28,2.71-.22,5.11-.02,7.19.59v-14.64c-2.08-.35-4.23-.44-6.44-.29Z"/>
      <path class="cls-2" d="M431.69,135.34c-5.25-3.17-11.41-4.75-18.48-4.75s-12.97,1.56-18.22,4.68c-5.25,3.12-9.35,7.46-12.3,13.01-2.95,5.55-4.42,12.02-4.42,19.39s1.44,13.65,4.33,19.23c2.89,5.57,6.95,9.94,12.2,13.11,5.25,3.17,11.39,4.75,18.41,4.75s13.16-1.57,18.41-4.72c5.25-3.14,9.34-7.5,12.26-13.08,2.93-5.57,4.39-12,4.39-19.29s-1.45-13.65-4.36-19.23c-2.91-5.57-6.98-9.94-12.23-13.11ZM427.13,183.82c-3.04,4.16-7.68,6.25-13.92,6.25s-10.6-2.03-13.7-6.08c-3.1-4.05-4.65-9.49-4.65-16.3,0-4.42.65-8.32,1.95-11.68,1.3-3.36,3.31-5.99,6.02-7.87,2.71-1.89,6.17-2.83,10.38-2.83,6.16,0,10.78,2.03,13.86,6.08,3.08,4.06,4.62,9.49,4.62,16.3s-1.52,11.97-4.56,16.14Z"/>
      <polygon class="cls-2" points="519.66 177.64 505.8 132.55 492.59 132.55 478.66 177.64 464.93 132.55 449.58 132.41 471.05 202.82 483.28 202.82 499.16 154.47 515.1 202.82 527.33 202.82 548.8 132.55 533.45 132.55 519.66 177.64"/>
      <path class="cls-2" d="M572.29,113.03h-15.61v61.1c0,3.99.04,7.57.13,10.74.09,3.17.93,6.27,2.54,9.3,1.82,3.34,4.49,5.78,8,7.32,3.51,1.54,7.49,2.36,11.94,2.47,4.45.11,8.99-.27,13.63-1.14v-13.14c-4.38.65-8.29.82-11.71.52-3.43-.3-5.92-1.76-7.48-4.36-.82-1.35-1.27-3.08-1.33-5.21-.07-2.13-.1-4.6-.1-7.42v-28.37h20.62v-12.3h-20.62v-19.52Z"/>
      <path class="cls-2" d="M663.07,148.36c-.95-3.04-2.43-5.9-4.42-8.59-2-2.69-4.68-4.9-8.07-6.64-3.38-1.73-7.68-2.6-12.88-2.6-6.59,0-12.15,1.44-16.65,4.33-2.43,1.55-4.52,3.42-6.31,5.55v-27.38h-13.99v89.79h15.88v-36.11c0-4.29.48-7.82,1.43-10.57.95-2.75,2.22-4.92,3.81-6.51,1.58-1.58,3.35-2.7,5.3-3.35s3.93-.98,5.92-.98c3.73,0,6.69.8,8.88,2.41,2.19,1.61,3.84,3.66,4.95,6.15,1.11,2.49,1.81,5.09,2.11,7.77.3,2.69.46,5.14.46,7.35v33.83h15.88v-39.23c0-1.69-.14-3.89-.42-6.6s-.9-5.58-1.85-8.62Z"/>
      <path class="cls-2" d="M740.06,113.38c-6.4-4.14-14.28-6.21-23.65-6.21s-17.2,2.07-23.62,6.21c-6.42,4.14-11.28,9.88-14.57,17.21-3.3,7.33-4.94,15.79-4.94,25.38s1.65,18.04,4.94,25.38c3.29,7.33,8.15,13.07,14.57,17.21,6.42,4.14,14.29,6.21,23.62,6.21s17.25-2.07,23.65-6.21c6.4-4.14,11.26-9.88,14.57-17.21,3.32-7.33,4.98-15.79,4.98-25.38s-1.66-18.04-4.98-25.38c-3.32-7.33-8.18-13.07-14.57-17.21ZM745.79,176.63c-2.45,5.96-6.13,10.62-11.03,13.96-4.9,3.34-11.02,5.01-18.35,5.01-7.33-.04-13.44-1.75-18.35-5.11-4.9-3.36-8.58-8-11.03-13.92-2.45-5.92-3.65-12.79-3.61-20.59.04-7.81,1.29-14.69,3.74-20.66,2.45-5.96,6.1-10.62,10.96-13.96,4.86-3.34,10.95-5.01,18.28-5.01,7.33.04,13.45,1.74,18.35,5.08,4.9,3.34,8.58,7.98,11.03,13.92,2.45,5.94,3.68,12.82,3.68,20.63s-1.23,14.69-3.68,20.66Z"/>
      <path class="cls-2" d="M826.22,159.12c-2.45-1.8-4.97-3.19-7.55-4.16-2.58-.98-4.82-1.72-6.73-2.24l-18.35-5.4c-2.43-.69-4.94-1.58-7.51-2.67-2.58-1.08-4.75-2.58-6.51-4.49-1.76-1.91-2.64-4.45-2.64-7.61s.95-5.9,2.86-8.33c1.91-2.43,4.5-4.35,7.77-5.76,3.28-1.41,7.02-2.11,11.23-2.11,4.34.04,8.32.88,11.94,2.5,3.62,1.63,6.6,3.94,8.95,6.93,2.34,2.99,3.84,6.53,4.49,10.61l10.02-1.82c-1.04-5.6-3.17-10.44-6.38-14.54-3.21-4.1-7.28-7.25-12.2-9.47-4.92-2.21-10.51-3.32-16.75-3.32-6.16-.04-11.65.98-16.46,3.06-4.82,2.08-8.61,5.05-11.39,8.91-2.78,3.86-4.17,8.44-4.17,13.73,0,3.12.5,5.9,1.5,8.33,1,2.43,2.4,4.55,4.2,6.34,1.8,1.8,3.92,3.34,6.34,4.62,2.43,1.28,5.08,2.33,7.94,3.16l23.75,7.09c1.6.48,3.25,1.1,4.94,1.86,1.69.76,3.25,1.7,4.69,2.83s2.58,2.55,3.45,4.26c.87,1.71,1.3,3.78,1.3,6.21,0,3.69-1.04,6.87-3.12,9.56-2.08,2.69-4.94,4.76-8.59,6.21-3.64,1.45-7.77,2.18-12.36,2.18-6.98,0-12.99-1.72-18.02-5.17-5.03-3.45-8.33-8.21-9.89-14.28l-9.76,1.63c1.04,5.55,3.26,10.34,6.67,14.38,3.41,4.03,7.72,7.15,12.95,9.34,5.23,2.19,11.11,3.29,17.66,3.29,4.9,0,9.42-.62,13.57-1.85,4.14-1.24,7.76-3.03,10.86-5.37,3.1-2.34,5.51-5.23,7.22-8.65,1.71-3.43,2.57-7.31,2.57-11.65s-.8-8.15-2.41-11.06c-1.61-2.91-3.63-5.26-6.09-7.06Z"/>
      <path class="cls-2" d="M890.55,114.74c-1.3-2.63-3.29-4.52-5.98-5.67-2.69-1.15-5.8-1.73-9.33-1.73-4.69,0-8.41,1.02-11.18,3.06-2.76,2.04-4.63,4.74-5.62,8.1l8.1,2.54c.66-2.04,1.83-3.47,3.5-4.31,1.67-.83,3.4-1.25,5.19-1.25,2.97,0,5.08.65,6.33,1.95,1.04,1.08,1.61,2.68,1.77,4.76-1.59.24-3.15.46-4.66.68-2.52.36-4.85.74-7,1.16-2.15.42-4.02.88-5.61,1.4-2.11.71-3.83,1.63-5.16,2.74-1.32,1.12-2.31,2.44-2.95,3.98-.64,1.53-.96,3.26-.96,5.17,0,2.18.51,4.19,1.53,6,1.02,1.82,2.52,3.27,4.51,4.36,1.99,1.09,4.42,1.64,7.29,1.64,3.58,0,6.57-.67,8.97-2.01,1.84-1.03,3.5-2.53,4.99-4.47v5.37h7.77v-24.41c0-1.72-.07-3.31-.22-4.77-.15-1.46-.58-2.89-1.29-4.29ZM882.37,135.66c-.29.91-.86,1.88-1.71,2.91s-1.98,1.9-3.41,2.61c-1.43.71-3.14,1.07-5.16,1.07-1.4,0-2.57-.22-3.52-.66-.95-.44-1.66-1.04-2.15-1.79-.49-.75-.74-1.61-.74-2.6,0-.86.19-1.61.57-2.25.38-.64.93-1.2,1.64-1.69.71-.49,1.58-.92,2.61-1.29,1.06-.34,2.27-.66,3.65-.94,1.37-.28,3.02-.58,4.93-.9,1.21-.2,2.63-.43,4.14-.67-.01.68-.04,1.43-.07,2.31-.06,1.46-.33,2.76-.79,3.88Z"/>
      <rect class="cls-2" x="897.34" y="108.44" width="8.88" height="39.77"/>
      <circle class="cls-2" cx="901.78" cy="99.21" r="5.57"/>
      <circle class="cls-1" cx="846.46" cy="143.86" r="5.45"/>
    </g>
  </g>
</svg>