<svg width="21" height="21" viewBox="0 0 21 21" fill="none" xmlns="http://www.w3.org/2000/svg">
<path d="M10.4417 13.4167C12.2834 13.4167 13.7751 11.925 13.7751 10.0834V5.50002C13.7751 3.65835 12.2834 2.16669 10.4417 2.16669C8.60007 2.16669 7.1084 3.65835 7.1084 5.50002V10.0834C7.1084 11.925 8.60007 13.4167 10.4417 13.4167Z" stroke="#FFD900" stroke-width="1.5" stroke-linecap="round" stroke-linejoin="round"/>
<path d="M4.06641 8.54169V9.95835C4.06641 13.475 6.92474 16.3334 10.4414 16.3334C13.9581 16.3334 16.8164 13.475 16.8164 9.95835V8.54169" stroke="#FFD900" stroke-width="1.5" stroke-linecap="round" stroke-linejoin="round"/>
<path d="M9.2832 5.85835C10.0332 5.58335 10.8499 5.58335 11.5999 5.85835" stroke="#FFD900" stroke-width="1.5" stroke-linecap="round" stroke-linejoin="round"/>
<path d="M9.77441 7.62498C10.2161 7.50831 10.6744 7.50831 11.1161 7.62498" stroke="#FFD900" stroke-width="1.5" stroke-linecap="round" stroke-linejoin="round"/>
<path d="M10.4414 16.3333V18.8333" stroke="#FFD900" stroke-width="1.5" stroke-linecap="round" stroke-linejoin="round"/>
</svg>
