<svg width="25" height="25" viewBox="0 0 25 25" fill="none" xmlns="http://www.w3.org/2000/svg">
<path d="M8.94123 22.5H16.9412C20.9612 22.5 21.6812 20.89 21.8912 18.93L22.6412 10.93C22.9112 8.49 22.2112 6.5 17.9412 6.5H7.94123C3.67123 6.5 2.97123 8.49 3.24123 10.93L3.99123 18.93C4.20123 20.89 4.92123 22.5 8.94123 22.5Z" stroke="white" stroke-opacity="0.6" stroke-width="1.5" stroke-miterlimit="10" stroke-linecap="round" stroke-linejoin="round"/>
<path d="M8.94141 6.5V5.7C8.94141 3.93 8.94141 2.5 12.1414 2.5H13.7414C16.9414 2.5 16.9414 3.93 16.9414 5.7V6.5" stroke="white" stroke-opacity="0.6" stroke-width="1.5" stroke-miterlimit="10" stroke-linecap="round" stroke-linejoin="round"/>
<path d="M14.9414 13.5V14.5C14.9414 14.51 14.9414 14.51 14.9414 14.52C14.9414 15.61 14.9314 16.5 12.9414 16.5C10.9614 16.5 10.9414 15.62 10.9414 14.53V13.5C10.9414 12.5 10.9414 12.5 11.9414 12.5H13.9414C14.9414 12.5 14.9414 12.5 14.9414 13.5Z" stroke="white" stroke-opacity="0.6" stroke-width="1.5" stroke-miterlimit="10" stroke-linecap="round" stroke-linejoin="round"/>
<path d="M22.5914 11.5C20.2814 13.18 17.6414 14.18 14.9414 14.52" stroke="white" stroke-opacity="0.6" stroke-width="1.5" stroke-miterlimit="10" stroke-linecap="round" stroke-linejoin="round"/>
<path d="M3.56152 11.77C5.81152 13.31 8.35152 14.24 10.9415 14.53" stroke="white" stroke-opacity="0.6" stroke-width="1.5" stroke-miterlimit="10" stroke-linecap="round" stroke-linejoin="round"/>
</svg>
