<svg width="25" height="25" viewBox="0 0 25 25" fill="none" xmlns="http://www.w3.org/2000/svg">
<path d="M9.44094 13.5C8.78094 13.83 8.23094 14.32 7.82094 14.93C7.59094 15.28 7.59094 15.72 7.82094 16.07C8.23094 16.68 8.78094 17.17 9.44094 17.5" stroke="white" stroke-opacity="0.6" stroke-width="1.5" stroke-linecap="round" stroke-linejoin="round"/>
<path d="M15.6514 13.5C16.3114 13.83 16.8614 14.32 17.2714 14.93C17.5014 15.28 17.5014 15.72 17.2714 16.07C16.8614 16.68 16.3114 17.17 15.6514 17.5" stroke="white" stroke-opacity="0.6" stroke-width="1.5" stroke-linecap="round" stroke-linejoin="round"/>
<path d="M9.44141 22.5H15.4414C20.4414 22.5 22.4414 20.5 22.4414 15.5V9.5C22.4414 4.5 20.4414 2.5 15.4414 2.5H9.44141C4.44141 2.5 2.44141 4.5 2.44141 9.5V15.5C2.44141 20.5 4.44141 22.5 9.44141 22.5Z" stroke="white" stroke-opacity="0.6" stroke-width="1.5" stroke-linecap="round" stroke-linejoin="round"/>
<path d="M2.67188 8.51L21.8919 8.5" stroke="white" stroke-opacity="0.6" stroke-width="1.5" stroke-linecap="round" stroke-linejoin="round"/>
</svg>
