<svg width="25" height="25" viewBox="0 0 25 25" fill="none" xmlns="http://www.w3.org/2000/svg">
<path d="M7.44141 12.5C3.44141 12.5 3.44141 14.29 3.44141 16.5V17.5C3.44141 20.26 3.44141 22.5 8.44141 22.5H16.4414C20.4414 22.5 21.4414 20.26 21.4414 17.5V16.5C21.4414 14.29 21.4414 12.5 17.4414 12.5C16.4414 12.5 16.1614 12.71 15.6414 13.1L14.6214 14.18C13.4414 15.44 11.4414 15.44 10.2514 14.18L9.24141 13.1C8.72141 12.71 8.44141 12.5 7.44141 12.5Z" stroke="white" stroke-opacity="0.6" stroke-width="1.5" stroke-miterlimit="10" stroke-linecap="round" stroke-linejoin="round"/>
<path d="M19.4414 12.5V6.5C19.4414 4.29 19.4414 2.5 15.4414 2.5H9.44141C5.44141 2.5 5.44141 4.29 5.44141 6.5V12.5" stroke="white" stroke-opacity="0.6" stroke-width="1.5" stroke-miterlimit="10" stroke-linecap="round" stroke-linejoin="round"/>
</svg>
