<svg width="48" height="48" viewBox="0 0 48 48" fill="none" xmlns="http://www.w3.org/2000/svg">
<path d="M35.5354 4.08277C35.19 5.12551 34.319 5.51407 33.3298 5.06356C31.8103 4.37278 30.2448 3.82466 28.6005 3.51494C28.5263 3.50086 28.4588 3.45393 28.3874 3.42202C28.2523 3.33286 28.0796 3.4483 27.9482 3.33943C27.6826 3.36007 27.4245 3.3291 27.1748 3.23525C27.0031 3.14045 26.7985 3.2634 26.6295 3.15453L26.1434 3.14045C25.9303 3.04659 25.6929 3.16767 25.4808 3.06443C25.233 3.05786 24.9862 3.05129 24.7384 3.04566C24.4906 2.99028 24.2419 2.99028 23.9941 3.04566C23.767 3.05129 23.5399 3.05692 23.3127 3.06255C23.049 3.17518 22.7609 3.04096 22.4953 3.14045C22.3648 3.14514 22.2334 3.14984 22.103 3.15453C21.9331 3.2634 21.7285 3.14045 21.5567 3.23525C21.491 3.24088 21.4253 3.24745 21.3587 3.25308C21.2207 3.34975 21.0462 3.23618 20.9082 3.33286C19.7679 3.5675 18.6257 3.79275 17.5219 4.18038C16.0634 4.69189 14.6913 5.37611 13.3642 6.16544C11.0216 7.56014 9.0957 9.41192 7.48329 11.5828C6.26318 13.2253 5.29648 15.0208 4.61229 16.9636C4.23405 18.0382 3.96563 19.1373 3.71035 20.242C3.62588 20.3771 3.7385 20.548 3.62963 20.6775C3.59397 20.9985 3.5583 21.3185 3.52264 21.6395C3.43535 21.8084 3.5508 22.0065 3.44662 22.1726C3.44099 22.3697 3.43535 22.5668 3.42878 22.7648C3.35276 23.4218 3.41658 24.0816 3.39594 24.7396C3.41001 24.9217 3.36403 25.1075 3.42878 25.2868C3.43535 25.5111 3.44192 25.7354 3.44849 25.9597C3.54516 26.0986 3.43911 26.2722 3.52452 26.413C3.69627 28.0424 4.06324 29.6285 4.60665 31.1715C5.37157 33.3443 6.47248 35.335 7.89624 37.1436C8.3261 37.6899 8.84136 38.1713 9.24493 38.7345C9.74329 39.4309 9.61941 40.1996 9.01592 40.6876C8.29325 41.2714 7.52927 41.2583 6.90139 40.6116C5.53581 39.2066 4.39454 37.6317 3.42409 35.9319C2.14861 33.6982 1.29079 31.3048 0.751125 28.796C0.634746 28.2564 0.616914 27.696 0.441406 27.1667V20.9741C0.50992 20.9093 0.477071 20.8126 0.514613 20.7375C0.549339 20.5855 0.529629 20.4306 0.53526 20.2767C0.530568 18.7337 1.01673 17.2977 1.51604 15.8702C2.52778 12.9766 4.06605 10.3786 6.09049 8.08761C7.93097 6.004 10.0558 4.25359 12.4942 2.88704C14.9043 1.53645 17.4769 0.677665 20.1836 0.183981C20.7683 0.0769848 21.3615 0.0910633 21.9518 0.0516437C22.1011 0.0516437 22.2512 0.0516437 22.4005 0.0516437C22.6586 0.0385038 22.9148 -0.0178099 23.1757 0.00565414C23.3925 0.00565414 23.6093 0.00565414 23.8261 0.00565414C24.1903 0.00565414 24.5544 0.00565414 24.9186 0.00565414C25.142 0.0253639 25.37 -0.0365811 25.5896 0.0450737C25.8102 0.00753127 26.0232 0.193367 26.2466 0.0647836C26.424 0.154885 26.6286 0.0394424 26.8041 0.139868C28.134 0.311625 29.4508 0.551897 30.7469 0.897288C32.0928 1.25582 33.4067 1.70727 34.6494 2.33798C35.0605 2.54634 35.4415 2.8326 35.5344 3.34412C35.5992 3.58815 35.5992 3.83311 35.5344 4.07714L35.5354 4.08277Z" fill="#FFD900"/>
<path d="M21.4579 48.0001C20.8798 47.7589 20.2519 47.7636 19.6503 47.6407C17.8229 47.2671 16.0594 46.7087 14.3654 45.9306C13.4719 45.5205 13.118 44.6617 13.4925 43.8517C13.8623 43.0511 14.7389 42.777 15.6427 43.1788C26.1825 47.8669 38.2466 43.6142 43.2387 33.2544C46.6981 26.0763 46.0627 19.0174 41.7792 12.316C41.0734 11.2123 41.5502 10.0287 42.5207 9.7819C43.1692 9.61765 43.7868 9.84009 44.1913 10.4276C46.1209 13.2311 47.3758 16.3143 48.0083 19.6546C48.2148 20.7452 48.3425 21.8452 48.395 22.9537C48.4992 23.2897 48.3537 23.6463 48.4767 23.9814V24.263C48.3725 24.5558 48.457 24.859 48.4297 25.1555C48.5198 29.1106 47.3373 32.7157 45.4151 36.1179C44.1753 38.3123 42.6155 40.2579 40.7619 41.9539C37.6966 44.7602 34.1329 46.6486 30.0869 47.6332C29.1558 47.8603 28.206 47.8415 27.2731 47.9983H21.456L21.4579 48.0001Z" fill="#FFD900"/>
<path d="M24.4135 5.07292C32.3818 5.07292 39.5691 10.1158 42.2327 17.568C42.4655 18.2184 42.4082 18.8106 41.9211 19.3025C41.4931 19.7342 40.9535 19.86 40.3659 19.661C39.8554 19.4892 39.5607 19.1176 39.3748 18.6164C38.0581 15.0592 35.7718 12.2961 32.5244 10.3401C23.2572 4.75756 11.0027 10.0914 8.78494 20.6634C8.39262 22.532 8.29877 24.4054 8.57282 26.2966C8.70234 27.192 8.1655 27.9447 7.31612 28.0846C6.47988 28.2225 5.70839 27.666 5.58451 26.7668C4.95944 22.2204 5.78066 17.9425 8.23964 14.0662C11.7601 8.51556 16.8658 5.54877 23.4299 5.10764C23.6008 5.09638 23.7725 5.08136 23.9433 5.07479C24.0991 5.06916 24.2559 5.07385 24.4126 5.07385L24.4135 5.07292Z" fill="#FFD900"/>
<path d="M26.6123 39.8496C29.4729 39.4648 32.0173 38.3329 34.2651 36.544C37.2929 34.1338 39.1859 31.0102 39.9912 27.2288C40.101 26.7144 40.1545 26.1879 40.2333 25.6661C40.3234 25.4962 40.207 25.2963 40.3103 25.1283C40.3159 24.964 40.3215 24.7998 40.3272 24.6346C40.4285 24.2901 40.2896 23.9269 40.406 23.5834C40.5627 22.5303 41.949 22.1877 42.712 22.779C42.9898 22.994 43.2498 23.2502 43.3211 23.6266C43.3925 24.1794 43.3906 24.7322 43.3211 25.285L43.3033 25.7702C43.2132 25.942 43.3296 26.1438 43.2263 26.3137C43.2216 26.3831 43.2169 26.4526 43.2123 26.523C43.1212 26.6666 43.2329 26.8449 43.1325 26.9875C42.9917 28.3428 42.5825 29.6305 42.1113 30.8967C41.383 32.8526 40.3178 34.6152 38.986 36.2211C37.8776 37.5558 36.5843 38.6745 35.1765 39.6863C32.8583 41.3513 30.2519 42.2748 27.4842 42.8173C27.3481 42.8436 27.2045 42.8342 27.0646 42.8408C26.8985 42.9525 26.6967 42.8277 26.5278 42.9225L26.2528 42.9403C26.0726 43.0388 25.8652 42.9271 25.684 43.0144C24.8975 43.0407 24.111 43.1289 23.3245 43.0144C23.0439 42.9168 22.7427 43.0482 22.463 42.9375C22.3747 42.9318 22.2865 42.9262 22.1983 42.9206C22.0275 42.8295 21.8257 42.9506 21.6577 42.8408C20.3588 42.7516 19.1227 42.3847 17.9082 41.9501C15.0851 40.9402 12.6449 39.3259 10.581 37.1606C8.79686 35.2891 7.4416 33.1342 6.5453 30.7033C6.17363 29.6953 6.56407 28.9172 7.57488 28.5747C7.82265 28.5071 8.07136 28.5071 8.31914 28.5747C9.2849 28.9022 9.4651 29.8173 9.81987 30.5954C10.6167 32.3458 11.6444 33.9254 13.0222 35.2882C13.9832 36.239 15.0034 37.1024 16.171 37.7716C17.8256 38.7196 19.561 39.4826 21.4728 39.7576C21.608 39.8421 21.7788 39.7295 21.9083 39.8383C21.9777 39.8412 22.0472 39.844 22.1166 39.8468C22.264 39.9378 22.4451 39.828 22.5915 39.9256C22.7473 39.905 22.8985 40.0176 23.0571 39.9435C23.4184 40.0429 23.7957 39.9059 24.1561 40.0204C24.2959 40.0204 24.4358 40.0204 24.5756 40.0204C24.9126 39.9463 25.2495 39.9575 25.5874 40.0157C25.7704 39.9866 25.9534 39.9566 26.1374 39.9275C26.2828 39.8271 26.464 39.9359 26.6113 39.8487L26.6123 39.8496Z" fill="#FFD900"/>
<path d="M35.1651 22.4833C34.9202 21.311 34.6311 20.1538 34.0577 19.0894C32.3936 16.0006 29.8586 14.0766 26.4095 13.3755C26.2884 13.3511 26.1711 13.3107 26.0519 13.2769C25.913 13.184 25.7375 13.2976 25.6005 13.1962C25.4371 13.1915 25.2729 13.1859 25.1096 13.1812C24.5831 13.1239 24.0566 13.1239 23.5291 13.1812C23.3968 13.1868 23.2644 13.1915 23.1321 13.1971C22.9951 13.2985 22.8196 13.1849 22.6797 13.2779C20.8355 13.5369 19.2193 14.3375 17.7233 15.4009C17.3479 15.6674 17.0381 16.025 16.6956 16.3385C16.4778 16.5375 16.2685 16.7562 15.9419 16.7646C15.6829 16.8313 15.4229 16.8322 15.1639 16.7637C14.5773 16.6848 14.2328 16.285 14.093 15.7782C13.9513 15.2667 13.9776 14.7251 14.399 14.2915C16.2976 12.3355 18.5802 11.0666 21.24 10.4838C21.8444 10.3514 22.4629 10.2848 23.0739 10.1881C23.2888 10.099 23.5141 10.1665 23.7328 10.1449C24.1542 10.1449 24.5765 10.1449 24.9979 10.1449C25.2194 10.1656 25.4465 10.099 25.6643 10.1872C26.8938 10.3561 28.1045 10.5992 29.273 11.03C30.9398 11.6438 32.403 12.5796 33.7151 13.7687C35.1802 15.0959 36.3336 16.6567 37.1445 18.4512C37.656 19.585 38.0249 20.7751 38.1563 22.0243C38.2661 22.1923 38.145 22.3951 38.236 22.5659C38.2426 22.6597 38.2482 22.7536 38.2548 22.8474C38.3393 23.1027 38.2764 23.3665 38.2961 23.6255C38.2698 24.1821 38.3505 24.7405 38.2501 25.2952C38.2464 25.3909 38.2426 25.4867 38.2379 25.5824C38.1422 25.7513 38.267 25.9531 38.1563 26.1202C37.992 27.5102 37.5781 28.8261 36.9399 30.0659C36.7757 30.385 36.4538 30.5831 36.0793 30.6469C35.8306 30.7192 35.5818 30.7135 35.3322 30.6506C34.7034 30.5192 34.2707 30.0537 34.2069 29.438C34.1459 29.2728 34.1459 29.1067 34.2069 28.9415C34.2294 28.445 34.5551 28.0527 34.6752 27.5909C34.8413 26.949 35.0018 26.3051 35.1642 25.6622C35.2581 25.4914 35.136 25.2886 35.244 25.1197C35.2487 25.0211 35.2543 24.9226 35.259 24.824C35.3266 24.6617 35.2787 24.4918 35.2928 24.3257C35.2928 24.1323 35.2928 23.939 35.2928 23.7456C35.2796 23.5795 35.3237 23.4096 35.2618 23.2463C35.2552 23.1712 35.2496 23.0952 35.243 23.0201C35.136 22.854 35.2599 22.6522 35.1623 22.4852L35.1651 22.4833Z" fill="#FFD900"/>
<path d="M24.8796 38.0117C17.3638 38.0117 11.4998 32.8477 10.5566 25.8348C10.214 23.2838 10.5659 20.8248 11.603 18.4699C12.0141 17.536 13.0521 17.2282 13.8612 17.7735C14.4768 18.1883 14.6936 18.9364 14.3764 19.6816C13.7119 21.2433 13.4116 22.8642 13.4764 24.564C13.6631 29.5102 17.4398 33.8952 22.3109 34.7746C25.7478 35.395 28.8056 34.5606 31.4842 32.3231C32.5015 31.4727 33.8699 31.9007 34.0858 33.1424C34.2041 33.822 33.8681 34.3044 33.3716 34.7192C31.6287 36.1768 29.6568 37.1698 27.4409 37.6748C26.432 37.9047 25.409 38.0089 24.8796 38.0117Z" fill="#FFD900"/>
<path d="M20.4082 24.1119C20.4082 21.7871 22.2402 19.9419 24.5584 19.9306C26.8916 19.9193 28.7603 21.7777 28.7612 24.1109C28.7612 26.4433 26.8926 28.3044 24.5584 28.2979C22.2506 28.2913 20.4082 26.433 20.4091 24.1119H20.4082Z" fill="#FFD900"/>
</svg>
